<?xml version="1.0" encoding="UTF-8"?>
<svg version="1.1" viewBox="0 0 2048 1074" width="100" height="100" xmlns="http://www.w3.org/2000/svg">
<path transform="translate(0)" d="m0 0h2048v1074h-2048z" fill="#FDFDFD"/>
<path transform="translate(795,156)" d="m0 0h11l6 3 5 5 2 4v12l-7 14-6 8 16 2 93 1v-6h267l1 1-1 17h2v-12l99-1 13-2-3-5-7-9-3-7v-13l5-8 8-4h11l8 4 7 8 3 7v13l-2 9 13 4 16 2v7l-3 12-5 1-23-8-10-5-4 1-9 4-10 2-11 1-91 1-3-1v424l-128 48-5 2-5-1-57-21-51-19-22-8-1-1v-424h-92l-15-2-13-5-3-1-16 7-18 6h-4l-3-16v-4l16-2 13-4-1-6-1-2v-14l5-10 8-7z" fill="#C12C2A"/>
<path transform="translate(1079,254)" d="m0 0h7l9 3 6 5 4 8 2 19 9 150 8 125 2 34v25l-4 6-9 6-10 1-9-3-6-4-5-9-2-19-4-60-3-5-10-8-19-11-4 18-4 11-8 7-6 2-11-1-8-4-6-7-2-6 1-12 4-17-8 2-10-5-6-9-2-6 1-10 4-6 7-6 4-2 6-1h15l8-29 32-128 10-39 5-8 6-5z" fill="#FDFDFD"/>
<path transform="translate(1577,725)" d="m0 0h31l4 16 9 47 1 10h6l2-17 11-55 1-1h29l1 2-1 131-4 3h-12l-4-4-1-3-1-28v-10l-5-1-5 25-3 12-4 6-3 4-7-1-5-3-4-9-8-36v-2l-6-1v45l-2 4-3 1h-14l-3-2-1-13v-118z" fill="#C12C2A"/>
<path transform="translate(1076,724)" d="m0 0 13 1 1 3v125l-4 5-7 3-11-2-4-2-4-11-8-26-7-21-4-2-1 12v41l-2 7-5 3-10-1-5-2-1-1v-130l2-1h23l4 8 12 40 3 11v3l5 1 1-62 1-1z" fill="#C12C2A"/>
<path transform="translate(1857,724)" d="m0 0 10 1 2 1v128l-2 4-4 1h-14l-6-3-8-25-10-32h-5l-1 55-5 5-3 1h-8l-6-4-1-7v-120l2-4h24l5 12 14 48 1 2 4 1v-18l1-44z" fill="#C12C2A"/>
<path transform="translate(1396,724)" d="m0 0h30l15 3 9 6 6 8v47l-3 7-3 3v11l10 40 1 9-4 2-6 1h-9l-5-4-5-15-6-23-3-10-6 2-3 7v36l-3 5-2 2h-11l-5-2-2-2v-131z" fill="#C12C2A"/>
<path transform="translate(700,724)" d="m0 0h15l3 1 1 2 1 50 3 2h13l3-4 1-49 5-2h16l2 4v110l-1 19-5 3h-13l-4-3-1-50-4-2h-15l-1 46-2 6-4 3h-14l-3-2-1-6v-125z" fill="#C12C2A"/>
<path transform="translate(535,725)" d="m0 0h29l3 8 9 54 3 17 2 13 4 25 2 8-1 7-8 5-12-2-4-5-3-19-3-6-3-1h-7l-5 3-2 5v12l3 1 1 2 1-15 4-2 5-5-2 5-3 5-2 15-4 8-3 3h-8l-10-4v-2l-7-1-2-1v-9l11-64 10-57z" fill="#C12C2A"/>
<path transform="translate(250,725)" d="m0 0h28l3 5 5 28 2 13 2 2v7l2 5 7 3 1 4-2 4-4 2-1 3 2 6 2 20 4 19v7l-3 6-9 3-9-3-3-3-3-17-2-7-4-3h-7l-5 3-3 8-3 15-3 4-5 2-12-2-3-2v-8l8-48v-3l-6-2v-8l8-3 3-12 7-42 2-5z" fill="#C12C2A"/>
<path transform="translate(1232,725)" d="m0 0h29l3 11 17 100 2 11v8l-5 5-3 2-12-2-4-3-4-22-3-5-9-1-5 3-3 9-3 14-5 6-4 1-11-2-3-2v-11l13-76 8-44z" fill="#C12C2A"/>
<path transform="translate(1723,725)" d="m0 0h29l2 5 10 57 7 41 4 25-3 5-6 4-12-2-4-4-4-22-1-4-4-1h-7l-5 3-3 9-2 12-4 6-4 3-13-2-3-2v-9l13-76 8-46z" fill="#C12C2A"/>
<path transform="translate(1528,724)" d="m0 0 4 1 2 5 10 58 8 47 2 12v8l-5 5-3 1h-7l-6-2-3-4-4-20-3-5-3-2-9 2-3 4-2 6-2 13-4 6-6 3-11-2-3-3 1-13 14-83 6-34 2-2z" fill="#C12C2A"/>
<path transform="translate(344,725)" d="m0 0h29l3 6 5 30 6 37 3 15 5 31v12l-3 4-8 1-9-2-3-2-5-24-6-5-9 2-3 6-5 21-3 3-9 1-7-1-3-3v-10l12-71 8-46z" fill="#C12C2A"/>
<path transform="translate(1124,725)" d="m0 0 10 1 1 2 1 29 5-1 13-25 4-5 7-1h9l7 1-1 5-14 27-9 17v9l17 41 11 28v6l-2 1h-20l-5-5-8-20-7-19h-7l-1 39-1 4-7 2-10-1-3-2-1-4v-126l1-2z" fill="#C12C2A"/>
<path transform="translate(468,725)" d="m0 0h10l7 2-18 36-7 13v7l16 39 13 33-1 4-2 1h-19l-5-4-6-14-7-18-2-9h-8l-1 43-5 2h-12l-3-1-1-2v-130l1-1h19l2 7v25l5-2 10-18 6-11z" fill="#C12C2A"/>
<path transform="translate(835,725)" d="m0 0h20l2 1 3 14 4 28 5 30 3 8 2-4 10-60 3-16 2-1h21l1 5-8 45-2 12 3 3 3 2v5l-7 5h-2l-5 26-5 24-2 7-2 1h-23l-5-3-3-12-6-32-2-10-8-6v-4l5-4-1-10-8-47v-6z" fill="#C12C2A"/>
<path transform="translate(633,722)" d="m0 0h15l12 5 9 9 7 13 1 3-4 1-6 5-12 1-4-2-5-10-4-3-6 1-4 6v10l6 12 10 10 8 7 7 7 9 14 3 9v15l-5 12-8 9-6 4-4 1-14 1 8 2 10 1 8-4 7-7 6-10 3-7 1 3-1 5 1 2-5 9-7 7-7 4h-13l-19-5-10-5-7-7-7-14-1-4v-8l2-3 5-1h14l8 17 4 3 5-1 5-4 2-4-1-10-4-7-25-25-8-10-4-9-2-8v-10l2-9 6-10 8-7z" fill="#C12C2A"/>
<path transform="translate(969,724)" d="m0 0 24 1 2 4 1 9-3 6-3 2-28 1-4 1-1 6v15l3 10 2 1 20 1 2 3 1 11-4 8-4 2h-17l-3 7v14l3 9 3 1 31 1 1 4v13l-3 5-2 1h-51l-5-2-1-36v-93l1-4z" fill="#C12C2A"/>
<path transform="translate(1304,724)" d="m0 0h63l2 5v9l-3 8-3 1-2 5-6 7h-3l2-4 7-7h-8l-4 2-2 4-1 104-3 2h-17l-2-3-1-108-19-2-2-7v-11z" fill="#C12C2A"/>
<path transform="translate(1296,156)" d="m0 0h11l8 4 7 8 3 7v13l-2 9 13 4 16 2v7l-3 12-5 1-23-8-10-5-4 1-9 4-10 2-11 1-91 1-3-2 1-12 99-1 13-2-3-5-7-9-3-7v-13l5-8z" fill="#C12C2A"/>
<path transform="translate(763,729)" d="m0 0 1 2 9 1 1 1v105l-1 21-4 6-3 2-12-1-3-1v-2l-6-2v-1l12-1 4-2 1-19v-38z" fill="#F8EEED"/>
<path transform="translate(1672,727)" d="m0 0 7 5v2h2l1 33v75l-1 20-1 2h-2v2l-3 1-10-1-2-1v-2l-7-1v-1l11-1 3-2 1-125z" fill="#F8EDEC"/>
<path transform="translate(1869,728)" d="m0 0 1 2 5 1 3 1 1 2v127l-1 3-5 2h-11l-9-3-2-2-2 1v-3l14-1 4-1 1-3z" fill="#F8F0EF"/>
<path transform="translate(1090,731)" d="m0 0 1 2 6-2 3 1 1 42v43l-1 39-1 4-5 1-1 5h-14l-5-2v-1l5-1 1-2 7-4 2-3z" fill="#F8F0EF"/>
<path transform="translate(911,729)" d="m0 0 6 2v13l-3 20-3 15-1 9-1 1-1 7 9 1v2h-2l-2 4-7 6-3 12-6 31-3 11-5 3-7-2-19-2-2-2 25-1 1-7 6-29 3-15 2-6 8-5v-5l-5-3-1-3 9-50z" fill="#F9F1F0"/>
<path transform="translate(1534,730)" d="m0 0 5 2 4 8 6 27 10 56 3 17 1 22-5 3h-14l-4-2v-2l9-2 4-4v-8l-6-35-12-71z" fill="#F8F0EF"/>
<path transform="translate(376,732)" d="m0 0 9 2 2 10 6 37 5 27 4 27 1 17v11l-4 3h-8l-9-2-1-2-3-2h8l7-2 1-2v-12l-6-38-4-20-8-50z" fill="#F8EEED"/>
<path transform="translate(1353,747)" d="m0 0h9l-6 7-4 5h3v106l-7 2-15-2v-2l-3 1-3-3v-1l16-1 2-1 1-104 4-6z" fill="#F8EEED"/>
<path transform="translate(566,730)" d="m0 0 7 3v6h2l5 23 6 34 5 28 5 26v10l-3-1-1 5-6 3-8-2v-3l5-4 3-3-1-10-3-17-3-15-3-23-4-21-6-36z" fill="#F5E5E4"/>
<path transform="translate(1759,734)" d="m0 0 2 1 1 9h2l8 40 2 19 4 23 2 4 3 17v12l-3 5h-2v2h-9l-5-2v-2l9-6 1-5-7-39-6-37-5-28v-6l3-1z" fill="#F3DDDC"/>
<path transform="translate(1264,731)" d="m0 0 5 2 4 13 8 38 11 66v12l-5 3h-7l5-4 2-2v-6l-4-1-4-22-16-94z" fill="#F7ECEB"/>
<path transform="translate(489,732)" d="m0 0h3l-1 6-22 44-1 8 18 41 8 17 3 9v5l-3 4-8 1-11-2-7-4v-1l18-1 2-1-1-6-12-30-12-29 2-16 10-18 13-26z" fill="#F7EAE9"/>
<path transform="translate(1185,732)" d="m0 0h3l-1 7-14 28-9 17 1 7 24 54 5 16-1 3h-2v2l-6 1-12-2-4-2-1-2-4-1 21-1-2-8-12-31-12-29 1-2 1-11 12-22z" fill="#F7EBEA"/>
<path transform="translate(1418,748)" d="m0 0h8l6 3 3 4v24l-3 5-6 4h-6l-5-5-1-5-1-20 3-9z" fill="#FDFCFB"/>
<path transform="translate(1820,798)" d="m0 0h5l3 8 2 9h-1v41l-1 4h-2l-2 4h-2v2l-5 1-9-2-2-3-3-2 11-2 4-4 1-55z" fill="#F6E8E7"/>
<path transform="translate(1458,744)" d="m0 0 4 4 1 2 1 44-2 5-4 6-1 11h2l7 25 4 21-4 2-3 3-10-1-7-2-3-3 17-3-1-9-7-28 1-9h1l1-13 4-1 1-11-1-37z" fill="#F7EDEC"/>
<path transform="translate(1023,358)" d="m0 0 7 1-1 8-14 51-8 27-3 1-3-1-1-3 8-32 14-50z" fill="#FDFBFB"/>
<path transform="translate(719,805)" d="m0 0 1 2 10 1-1 49-3 7-7 3h-7l-4-1v-4l-6 1-5-3 2-1h14l4-3 1-5z" fill="#F7EAE9"/>
<path transform="translate(1041,797)" d="m0 0 4 1 4 10 2 9-2-2 1 22v18l-3 8-4 1v2l-2 1h-11v-3h4l-1-2-5-1v-1l6-2 4-1 1-7v-46z" fill="#F5E4E3"/>
<path transform="translate(1072,268)" d="m0 0h13l6 4 4 5 2 8 2 24 1 27v50h-1l-9-98-2-8-1-2-7-2-10-1z" fill="#C12C2A"/>
<path transform="translate(300,791)" d="m0 0 9 2-1 4-3 3-1 3h-4l2 7 5 26 2 16v9l-6 4h-9l-9-3 4-1 9-3 2-5v-7l-4-19-2-20-2-7 3-4 3-1z" fill="#F4E1E0"/>
<path transform="translate(1069,421)" d="m0 0h2l3 57v5l-6-2-11-5-1-3 6-26 6-25z" fill="#C12C2A"/>
<path transform="translate(863,732)" d="m0 0h4l3 24 3 23 3 1 1 11-3 15h-3l-3-8-6-38-3-20v-6z" fill="#F8EEED"/>
<path transform="translate(1416,811)" d="m0 0 2 3 3 5 3 14 1 21-4 10-1 2h-7l-10-3-5-1v-1l11-1 3-3 1-3v-36z" fill="#F6E9E8"/>
<path transform="translate(670,807)" d="m0 0 5 3 6 8 4 7v12l-3 11-2 2-1-7v-2l-5 10-9 10-6 4-4 1-12-2-8-2v-1l17-1 7-3 6-5 6-9 3-8v-15l-4-11z" fill="#FCFAFA"/>
<path transform="translate(1644,814)" d="m0 0 5 1 1 1v33h-1l-1-6-3 15-4 6-8 3-2-1-2-2-4-2h4l2-4 5-8 6-32z" fill="#FDFBFB"/>
<path transform="translate(439,815)" d="m0 0h8l2 9h-1v17l-1 18-4 7h-8l-12-4-1-2 11-1 5-1v-41z" fill="#F9F1F0"/>
<path transform="translate(1846,726)" d="m0 0h1v44l-1 18-5-1-5-15-10-35 1-4 5 1 3 11 10 10z" fill="#F9F1F0"/>
<path transform="translate(1610,732)" d="m0 0 2 1 5-1 2 4 4 29v8h3l2 3 1 6 1 4-1 12-4 1-3-1-2-10-10-53z" fill="#F6E6E5"/>
<path transform="translate(1066,728)" d="m0 0h1v58l-1 2-5-1-8-27-7-24v-3l7 1 2 10 6 8 4 10z" fill="#F9F1F0"/>
<path transform="translate(719,729)" d="m0 0 1 3h9l1 43-3 1 1 4-7-1-2-2z" fill="#F9F1F0"/>
<path transform="translate(1135,816)" d="m0 0 2 1 2 4 3-1 1 17v23l-2 4-5 1v2l-9-2-10-4 4-1 13-1z" fill="#F9F1F0"/>
<path transform="translate(1734,828)" d="m0 0h7l-1 6-4 6-3 17-5 8-1 1-8-1-12-3v-1h10l5-6 2-6 2-13 4-6z" fill="#F9F1F0"/>
<path transform="translate(949,196)" d="m0 0 17 1 193 1v1h-244v6h-93v-1l91-1 1-5 5-1z" fill="#F9F1F0"/>
<path transform="translate(1243,828)" d="m0 0h6v4l-5 9-3 18-4 6h-10v-2l-11-1v-1h9l5-5 3-8 2-12 4-6z" fill="#FCFAFA"/>
<path transform="translate(358,827)" d="m0 0 3 1-7 25-1 9-4 2v2l-9-1 3-4-4 1-3-2 7-1 4-19 3-9 2-2z" fill="#FCFAF9"/>
<path transform="translate(281,731)" d="m0 0 3 1v2l3 1 3 9 2 8 3 19 3 13v3l-6-1-2-2-1-4v-7l-2-2-6-36z" fill="#F5E3E1"/>
<path transform="translate(261,828)" d="m0 0h7l-2 1v5h-2l-2 5-2 4-2 16-4 5-5 1-5-2h-7l-3-3h8l6-3 3-10 2-10 3-6z" fill="#F9F3F2"/>
<path transform="translate(1456,742)" d="m0 0h2l2 8 1 43-2 5-4 1v14h-1l-1 5h-2l-2-9v-11l4-4 2-6z" fill="#F8EFEE"/>
<path transform="translate(1418,751)" d="m0 0h2v2l5 1-2 5-1 3v3h2l1 6-1 4 2 9v4h-6l-5-5-1-5-1-20 1 2 2-2 1-6z" fill="#F4E0DF"/>
<path transform="translate(797,169)" d="m0 0h7l4 3v8l-6 8-5 4-4 1-3-6v-9l3-6z" fill="#FDFBFB"/>
<path transform="translate(1298,169)" d="m0 0h8l5 6 1 3v8l-3 7-5-1-8-8-2-4v-6z" fill="#FDFBFB"/>
<path transform="translate(1518,829)" d="m0 0h2l-2 8-4 7-2 16-5 5h-5l-5-1-6-1 3-2 7-4 3-8 2-12 2 1 6-1z" fill="#F9F2F1"/>
<path transform="translate(912,798)" d="m0 0 4 1-5 5-6 7-8 41-3 11-2 2-5-1 3-4 5-21 4-22 2-9 5-5z" fill="#C12C2A"/>
<path transform="translate(552,830)" d="m0 0 1 2-4 5-2 12-2 8-3 6-3 3h-8l-10-4v-1h8l5-6 2-5 1-6h1l1 5 3 1 1 2 1-15 4-2z" fill="#FAF3F2"/>
<path transform="translate(670,807)" d="m0 0 5 3 6 8 4 7v12l-3 11-2 2-1-7v-2l-1-4 2-5h-2l-1-2-2 8-1-3v-15l-4-11z" fill="#F9F1F0"/>
<path transform="translate(1185,732)" d="m0 0h3l-1 7-14 28-10 19h-1v-9l8-16 12-23z" fill="#C12C2A"/>
<path transform="translate(489,732)" d="m0 0h3l-1 6-23 46-2 2v-10l17-33z" fill="#C12C2A"/>
<path transform="translate(1458,744)" d="m0 0 4 4 1 2 1 44-2 5-4 6v15l-2-3-1-6v-12l4-1 1-11-1-37z" fill="#C12C2A"/>
<path transform="translate(964,809)" d="m0 0h5l-2 6-1 16-1 4-5 1-3-5-1-5v-14l2 4 2-3h2z" fill="#F2DBDA"/>
<path transform="translate(1603,814)" d="m0 0 2 4 2 31v12l-4 4h-8l4-2 4-5-1-22h-1l-1 18h-1v-35l1 4 2-1v-7z" fill="#F9F1F0"/>
<path transform="translate(965,751)" d="m0 0h2l-1 27-4 1-4-2-2-8v-15h1l1 5 4-1 1-5z" fill="#F6E8E7"/>
<path transform="translate(439,733)" d="m0 0h6l3 8 3 3-2 5-6 9h-4z" fill="#F9F2F1"/>
<path transform="translate(1647,833)" d="m0 0 1 2-2 20-4 8-5 3-6 1-2-3-4-2h4l2-4 5-8h6l-1 4-2 1 4 1 2-18z" fill="#FAF5F4"/>
<path transform="translate(300,791)" d="m0 0 9 2-1 4-3 3-1 3h-4l2 7 1 12-2-4v-6l-3 2h-3l-1-9-2-5 3-4 3-1z" fill="#F9F2F1"/>
<path transform="translate(1245,784)" d="m0 0 4 1 2 10v11l-3 2-6-1-2-2v-7l4-13z" fill="#FBF7F7"/>
<path transform="translate(1516,784)" d="m0 0 4 1 2 8v14h-8l-3-2v-7l4-13z" fill="#F9F0F0"/>
<path transform="translate(549,784)" d="m0 0 4 1 1 7v15l-6 1-3-1-1-2v-10l4-10z" fill="#FCF8F8"/>
<path transform="translate(1135,731)" d="m0 0 3 3 4-1 1 1 2 16-5 8-5-1z" fill="#F3DDDC"/>
<path transform="translate(263,784)" d="m0 0h3l3 12v11l-6 1-5-4v-7l4-12z" fill="#F4DFDE"/>
<path transform="translate(914,732)" d="m0 0h3v12l-3 20-3 15-2 8h-3l2-17 3-15z" fill="#C12C2A"/>
<path transform="translate(1736,784)" d="m0 0h4l2 11v11l-1 1h-8l-1-1v-10z" fill="#FAF3F3"/>
<path transform="translate(357,784)" d="m0 0 4 1 2 7 1 15-5 1-5-2v-12l2-9z" fill="#FCFAFA"/>
<path transform="translate(1602,831)" d="m0 0h1l1 27-5 6-9 1-10-3-2-3h19l2-5 1-19z" fill="#FDFCFC"/>
<path transform="translate(962,746)" d="m0 0h28l-3 3-7 2h-12l-1 3v-3l-4 3-1 4-5 2v-10l3-3z" fill="#F9F1F0"/>
<path transform="translate(1369,730)" d="m0 0 6 2 1 5v12l-1 3-8 1-2-4-4 3 2-5 3-3 2-6z" fill="#F9F1F0"/>
<path transform="translate(439,815)" d="m0 0h8v6l-7 1 1 14 2 9v12l-4 1-1-1v-40z" fill="#F9F1F0"/>
<path transform="translate(546,828)" d="m0 0h7l3 2h-2l-1 2h-2l-3 4-3 1-1 15-2 1v-3l-4-1v-12l3-6z" fill="#FCFBFA"/>
<path transform="translate(990,789)" d="m0 0h3v11l-4 8-6 1-1-4-3-2 3-3 3-10z" fill="#F9F1F0"/>
<path transform="translate(1030,332)" d="m0 0 7 1-5 21h-8l4-17z" fill="#FCFBFB"/>
<path transform="translate(995,731)" d="m0 0 1 3 8-2 1 3-5 16-2 2h-4l-3-9 3-3 1-6z" fill="#F9F1F0"/>
<path transform="translate(1455,788)" d="m0 0h4 1v8l-3 3h-2v14h-1l-1 5h-2l-2-9v-11l4-4z" fill="#FAF3F2"/>
<path transform="translate(995,843)" d="m0 0 1 3 9-1v6h-2l-1 5-3 9h-4l1-5h-2l-1-4 1-2z" fill="#F9F1F0"/>
<path transform="translate(1092,814)" d="m0 0h1l2 7v33l-2 4-4 4-1 2-3-1-2-1 1-4 8-4z" fill="#FEFEFE"/>
<path transform="translate(674,751)" d="m0 0 5 2 1 1v7l-4 1v2h-8v-2l-3-1v-2l-4-1 7-2z" fill="#F9F1F0"/>
<path transform="translate(1734,828)" d="m0 0h7l-6 8-3 2-1 13-2 1-1-5-2 1v-12l4-6z" fill="#FCFAFA"/>
<path transform="translate(1740,829)" d="m0 0 1 3-5 8-3 17-5 8h-5l6-9 2-18 6-5z" fill="#C12C2A"/>
<path transform="translate(263,830)" d="m0 0h2l-1 6-4 7-2 16-4 5-3 1-1-3 4-7 1-5v-11h4l2-5z" fill="#C12C2A"/>
<path transform="translate(1091,741)" d="m0 0h1v6l3-1v4l-1 16h-1l-1 10 2 1-1 6 1 14-1 16h-1l-1-17z" fill="#FDFDFD"/>
<path transform="translate(1518,829)" d="m0 0h2l-2 8-4 7-2 16-5 5h-4l2-4 4-6 2-16 4-4z" fill="#C12C2A"/>
<path transform="translate(1141,820)" d="m0 0h1l1 17v23l-2 4-6 2-2-2 6-4 1-34z" fill="#C12C2A"/>
<path transform="translate(1247,830)" d="m0 0h2l-2 6-3 5-3 18-4 6h-5l5-8 2-11 2-9 5-5z" fill="#C12C2A"/>
<path transform="translate(1023,358)" d="m0 0 7 1-1 8-3 11-2-4h-2l-2-4 2-10z" fill="#F9F2F1"/>
<path transform="translate(552,830)" d="m0 0 1 2-4 5-2 12-2 8-3 6-2 2h-4l2-5 4-5 1-3 1-15 4-2z" fill="#C12C2A"/>
<path transform="translate(359,829)" d="m0 0 1 3-6 21-1 9-4 3h-5l4-5 5-18 4-11z" fill="#C12C2A"/>
<path transform="translate(960,804)" d="m0 0h12l4 2h-2v2h-3v2h-7l-2 3h-2l-2 5h-1v-10z" fill="#FCFAF9"/>
<path transform="translate(995,861)" d="m0 0 1 2-1 2 3 1-45-1-12-1-2-2h55z" fill="#F9F1F0"/>
<path transform="translate(1096,848)" d="m0 0 2 3v9l-4 1-1 5h-14l-5-2v-1l5-1 1-2h3v2l3 1 2 1 2-5 5-3z" fill="#E4A7A5"/>
<path transform="translate(1233,848)" d="m0 0 2 3 2-1 1 7-6 8h-5v-2l-11-1v-1h9l5-5z" fill="#F9F1F0"/>
<path transform="translate(445,823)" d="m0 0h1l1 19v17l-3 5-1 1h-6l6-6z" fill="#C12C2A"/>
<path transform="translate(1287,851)" d="m0 0h1v8l-5 5 4 2h-8l-7-3 4-3 5-3 2-5 4 1z" fill="#F9F2F1"/>
<path transform="translate(1599,809)" d="m0 0 6 2 3 10v5h-2v11h-1l-1-20-1-2v7l-3 1-2-5v-8z" fill="#FCFAF9"/>
<path transform="translate(251,847)" d="m0 0 3 1 1 7-4 7v3l-7-2h-7l-3-3h8l6-3z" fill="#F9F1F0"/>
<path transform="translate(1604,825)" d="m0 0h1l2 24v12l-4 4h-8l4-2 4-5z" fill="#C12C2A"/>
<path transform="translate(639,749)" d="m0 0h2l1 4-2 4-1 9-1 2h-2l-1 2-4-9 1-4v2l3-1 3-8z" fill="#F9F1F0"/>
<path transform="translate(1136,831)" d="m0 0 1 3 2 1v24l-4 2v-12z" fill="#FEFEFE"/>
<path transform="translate(636,744)" d="m0 0 6 2v6l-1-3-2 1-2 4-1 6-4-1-1-2v-6l4-6z" fill="#FCF9F9"/>
<path transform="translate(1647,833)" d="m0 0 1 2-2 20-4 8-5 3h-3l2-4 3-3 1 1 3-7 3-19z" fill="#C12C2A"/>
<path transform="translate(1597,857)" d="m0 0 4 1-2 6-9 1-10-3-2-3h19z" fill="#F7EAE9"/>
<path transform="translate(439,822)" d="m0 0h1l1 14 2 9v12l-4 1z" fill="#FEFEFE"/>
<path transform="translate(1820,798)" d="m0 0h5l2 4-1 5-3 5h-2v-2h-2v-11z" fill="#F9F3F2"/>
<path transform="translate(1517,827)" d="m0 0 5 1-2 2-2-1-2 6-2 3-7 1 1-7 3-3z" fill="#FDFCFC"/>
<path transform="translate(1503,853)" d="m0 0 1 2 4-1 1 3-6 8-12-2 3-2 7-4z" fill="#F9F1F0"/>
<path transform="translate(1838,756)" d="m0 0h2l1 4h2l2 8v6l-2 2-3-3z" fill="#FEFEFE"/>
<path transform="translate(1286,834)" d="m0 0h2l3 17v11l-4 3h-7l5-4 3-4-1-14z" fill="#C12C2A"/>
<path transform="translate(1559,837)" d="m0 0 2 4 2 12v9l-5 3h-7l4-3 4-4z" fill="#C12C2A"/>
<path transform="translate(1449,798)" d="m0 0 5 1 1 14h-1l-1 5h-2l-2-9z" fill="#FCFBFB"/>
<path transform="translate(960,747)" d="m0 0h7l-3 6-2 5-5 2v-10z" fill="#FDFBFB"/>
<path transform="translate(399,833)" d="m0 0 2 3 2 16v11l-3 2h-6l5-4 1-10z" fill="#C12C2A"/>
<path transform="translate(872,785)" d="m0 0h3l1 4v8l-1 2h-2l-1 2-3-5 1-5h1z" fill="#FDFDFD"/>
<path transform="translate(1373,733)" d="m0 0h2l1 4v12l-1 3-7 1 2-4 2-2z" fill="#C12C2A"/>
<path transform="translate(682,825)" d="m0 0 2 1 1 11-3 11-2 2-1-7 2-10z" fill="#E8B6B4"/>
<path transform="translate(362,798)" d="m0 0h1l1 9-5 1-5-2 1-4 2 1v-3z" fill="#F9F0EF"/>
<path transform="translate(1093,848)" d="m0 0h2l-1 10-3 1-3 5-3-1-2-1 1-4 8-4z" fill="#FDFCFC"/>
<path transform="translate(1826,819)" d="m0 0h1l1 20v16l-1 5-2-3z" fill="#C12C2A"/>
<path transform="translate(914,207)" d="m0 0h5l1 1v10l-6-1z" fill="#F9F3F2"/>
<path transform="translate(306,841)" d="m0 0h1l2 11v9l-6 4-5-1 3-2 4-3 1-4z" fill="#C12C2A"/>
<path transform="translate(1780,843)" d="m0 0h1l2 9v7l-3 5-2 1h-6l5-5 3-4z" fill="#C12C2A"/>
<path transform="translate(546,828)" d="m0 0h7l3 2h-2l-1 2h-2l-3 4-4 1-1-4 1-2-2-1z" fill="#FAF4F3"/>
<path transform="translate(533,857)" d="m0 0 1 3 3 3-1 2 3 1h-8l-10-4v-1h8z" fill="#F9F1F0"/>
<path transform="translate(991,790)" d="m0 0h1l1 10-4 8-6 1 2-5 4-1 1-10z" fill="#C12C2A"/>
<path transform="translate(346,856)" d="m0 0h2l1 4-3 4 3 2-9-1 3-4-4 1-3-2 7-1 1-2z" fill="#F9F1F0"/>
<path transform="translate(1e3 733)" d="m0 0h2l-4 16-2 3h-4l1-5 4-5z" fill="#C12C2A"/>
<path transform="translate(1091,779)" d="m0 0 3 1-1 3 1 14-1 16h-1l-1-17z" fill="#FEFEFE"/>
<path transform="translate(1136,815)" d="m0 0h7v22h-1v-17l-4 2z" fill="#FBF7F7"/>
<path transform="translate(1e3 846)" d="m0 0 2 1-1 8-4 10h-4l2-5 3-5z" fill="#C12C2A"/>
<path transform="translate(1604,813)" d="m0 0h2l2 8v5h-2v11h-1z" fill="#FBF6F5"/>
<path transform="translate(677,752)" d="m0 0 3 2v7l-4 2h-7l1-2 6-2z" fill="#C12C2A"/>
<path transform="translate(307,794)" d="m0 0 2 1-4 5-1 2h-5v-6l7-1z" fill="#C12C2A"/>
<path transform="translate(594,851)" d="m0 0h1v9l-2-1-1 5-5 2-1-2 7-9z" fill="#C12C2A"/>
<path transform="translate(1517,827)" d="m0 0 5 1-2 2-2-1-2 6-4-4-4 3 2-4z" fill="#FAF5F4"/>
<path transform="translate(267,796)" d="m0 0h2v11l-6 1-1-2h4v-8z" fill="#FCFBFA"/>
<path transform="translate(1754,731)" d="m0 0 7 2-2 7-3 1-2-6z" fill="#F9F2F1"/>
<path transform="translate(444,815)" d="m0 0h3v6l-7 1v-5z" fill="#FDFDFD"/>
<path transform="translate(1417,844)" d="m0 0h1l2 20-5 1 1-4z" fill="#C12C2A"/>
<path transform="translate(1648,830)" d="m0 0h1l1 6v13h-1l-1-6h-1v-9l-1-2h2z" fill="#FAF3F3"/>
<path transform="translate(868,796)" d="m0 0h2l2 4 3-1-1 7h-3l-3-8z" fill="#F9F1F0"/>
<path transform="translate(1624,782)" d="m0 0 3 3v6l-1 2h-2l-1-4h-2l1-3z" fill="#FEFEFE"/>
<path transform="translate(1636,850)" d="m0 0h6l-1 4-6 1-2 4-2-1z" fill="#F9F1F0"/>
<path transform="translate(1822,803)" d="m0 0 4 1-2 7-3 1-1-7z" fill="#FEFEFE"/>
<path transform="translate(639,749)" d="m0 0h2l1 4-3 8h-2v-8z" fill="#C12C2A"/>
<path transform="translate(1466,852)" d="m0 0h1l2 11-4 2h-6l6-4z" fill="#C12C2A"/>
<path transform="translate(965,751)" d="m0 0h2l-1 6-2 3-3-1 2-6z" fill="#C12C2A"/>
<path transform="translate(1505,848)" d="m0 0h3 1v8l-1-2-4 1v-6z" fill="#FDFCFC"/>
<path transform="translate(1041,797)" d="m0 0 4 1 1 1v6l-5-2z" fill="#FDFBFB"/>
<path transform="translate(1725,841)" d="m0 0h1l1 6 2-1v8l-4-2z" fill="#FAF4F3"/>
<path transform="translate(1057,756)" d="m0 0 3 2 1 4v7l-2 1z" fill="#FEFEFE"/>
<path transform="translate(1419,780)" d="m0 0h2v2h2v4l-5 1v-6z" fill="#FDFDFD"/>
</svg>
